<mxfile host="app.diagrams.net" modified="2022-02-24T04:26:21.052Z" agent="5.0 (Windows NT 10.0; Win64; x64) AppleWebKit/537.36 (KHTML, like Gecko) Chrome/98.0.4758.102 Safari/537.36 Edg/98.0.1108.56" etag="eGJr01nmUvp5n9Oqpp68" version="16.6.3" type="github">
  <diagram id="pwz0JC942aw1yv_xoSKJ" name="Page-1">
    <mxGraphModel dx="2031" dy="1189" grid="1" gridSize="10" guides="1" tooltips="1" connect="1" arrows="1" fold="1" page="1" pageScale="1" pageWidth="827" pageHeight="1169" math="0" shadow="0">
      <root>
        <mxCell id="0" />
        <mxCell id="1" parent="0" />
        <mxCell id="fkSn7j7sHyEuHpr40nKb-25" value="" style="rounded=0;whiteSpace=wrap;html=1;rotation=90;" vertex="1" parent="1">
          <mxGeometry x="-50" y="350" width="980" height="490" as="geometry" />
        </mxCell>
        <mxCell id="EURwnSzUpGYA48WqyLTf-1" value="" style="html=1;dropTarget=0;rotation=90;" parent="1" vertex="1">
          <mxGeometry x="520" y="170" width="180" height="130" as="geometry" />
        </mxCell>
        <mxCell id="EURwnSzUpGYA48WqyLTf-2" value="" style="shape=module;jettyWidth=8;jettyHeight=4;rotation=90;" parent="EURwnSzUpGYA48WqyLTf-1" vertex="1">
          <mxGeometry x="1" width="20" height="20" relative="1" as="geometry">
            <mxPoint x="-27" y="7" as="offset" />
          </mxGeometry>
        </mxCell>
        <mxCell id="EURwnSzUpGYA48WqyLTf-3" value="«Component»&lt;br&gt;&lt;b&gt;Usuarios&lt;/b&gt;" style="html=1;dropTarget=0;rotation=90;" parent="1" vertex="1">
          <mxGeometry x="540" y="590" width="180" height="90" as="geometry" />
        </mxCell>
        <mxCell id="EURwnSzUpGYA48WqyLTf-4" value="" style="shape=module;jettyWidth=8;jettyHeight=4;rotation=90;" parent="EURwnSzUpGYA48WqyLTf-3" vertex="1">
          <mxGeometry x="1" width="20" height="20" relative="1" as="geometry">
            <mxPoint x="-27" y="7" as="offset" />
          </mxGeometry>
        </mxCell>
        <mxCell id="EURwnSzUpGYA48WqyLTf-5" value="" style="html=1;dropTarget=0;rotation=90;" parent="1" vertex="1">
          <mxGeometry x="405" y="565" width="180" height="140" as="geometry" />
        </mxCell>
        <mxCell id="EURwnSzUpGYA48WqyLTf-6" value="" style="shape=module;jettyWidth=8;jettyHeight=4;rotation=90;" parent="EURwnSzUpGYA48WqyLTf-5" vertex="1">
          <mxGeometry x="1" width="20" height="20" relative="1" as="geometry">
            <mxPoint x="-27" y="7" as="offset" />
          </mxGeometry>
        </mxCell>
        <mxCell id="EURwnSzUpGYA48WqyLTf-14" value="" style="ellipse;html=1;fontSize=11;align=center;fillColor=none;points=[];aspect=fixed;resizable=0;verticalAlign=bottom;labelPosition=center;verticalLabelPosition=top;flipH=1;rotation=90;" parent="1" vertex="1">
          <mxGeometry x="624" y="781" width="8" height="8" as="geometry" />
        </mxCell>
        <mxCell id="EURwnSzUpGYA48WqyLTf-16" value="OAuth" style="text;html=1;align=center;verticalAlign=middle;resizable=0;points=[];autosize=1;strokeColor=none;fillColor=none;rotation=90;" parent="1" vertex="1">
          <mxGeometry x="620" y="775" width="50" height="20" as="geometry" />
        </mxCell>
        <mxCell id="EURwnSzUpGYA48WqyLTf-25" value="«Component»&lt;br&gt;&lt;b&gt;Matrícula&lt;/b&gt;" style="html=1;dropTarget=0;rotation=90;" parent="1" vertex="1">
          <mxGeometry x="200" y="590" width="180" height="90" as="geometry" />
        </mxCell>
        <mxCell id="EURwnSzUpGYA48WqyLTf-26" value="" style="shape=module;jettyWidth=8;jettyHeight=4;rotation=90;" parent="EURwnSzUpGYA48WqyLTf-25" vertex="1">
          <mxGeometry x="1" width="20" height="20" relative="1" as="geometry">
            <mxPoint x="-27" y="7" as="offset" />
          </mxGeometry>
        </mxCell>
        <mxCell id="C9Q3XTzdTyIVGIK0IBnI-1" value="«Component»&lt;br&gt;&lt;b&gt;Bootstrap&lt;/b&gt;" style="html=1;dropTarget=0;rotation=90;" parent="1" vertex="1">
          <mxGeometry x="342" y="190" width="180" height="90" as="geometry" />
        </mxCell>
        <mxCell id="C9Q3XTzdTyIVGIK0IBnI-2" value="" style="shape=module;jettyWidth=8;jettyHeight=4;rotation=90;" parent="C9Q3XTzdTyIVGIK0IBnI-1" vertex="1">
          <mxGeometry x="1" width="20" height="20" relative="1" as="geometry">
            <mxPoint x="-27" y="7" as="offset" />
          </mxGeometry>
        </mxCell>
        <mxCell id="C9Q3XTzdTyIVGIK0IBnI-3" value="«Component»&lt;br&gt;&lt;b&gt;Mongo&lt;/b&gt;" style="html=1;dropTarget=0;rotation=90;" parent="1" vertex="1">
          <mxGeometry x="400" y="811" width="180" height="90" as="geometry" />
        </mxCell>
        <mxCell id="C9Q3XTzdTyIVGIK0IBnI-4" value="" style="shape=module;jettyWidth=8;jettyHeight=4;rotation=90;" parent="C9Q3XTzdTyIVGIK0IBnI-3" vertex="1">
          <mxGeometry x="1" width="20" height="20" relative="1" as="geometry">
            <mxPoint x="-27" y="7" as="offset" />
          </mxGeometry>
        </mxCell>
        <mxCell id="C9Q3XTzdTyIVGIK0IBnI-11" value="" style="html=1;rounded=0;rotation=90;" parent="1" vertex="1">
          <mxGeometry x="259" y="710" width="20" height="20" as="geometry" />
        </mxCell>
        <mxCell id="C9Q3XTzdTyIVGIK0IBnI-17" value="" style="html=1;rounded=0;rotation=90;" parent="1" vertex="1">
          <mxGeometry x="435" y="845" width="20" height="20" as="geometry" />
        </mxCell>
        <mxCell id="C9Q3XTzdTyIVGIK0IBnI-23" value="" style="endArrow=none;html=1;rounded=0;align=center;verticalAlign=top;endFill=0;labelBackgroundColor=none;endSize=2;exitX=0.5;exitY=1;exitDx=0;exitDy=0;entryX=0.604;entryY=-0.007;entryDx=0;entryDy=0;entryPerimeter=0;" parent="1" source="C9Q3XTzdTyIVGIK0IBnI-17" target="C9Q3XTzdTyIVGIK0IBnI-28" edge="1">
          <mxGeometry relative="1" as="geometry">
            <mxPoint x="275" y="575" as="sourcePoint" />
            <mxPoint x="321" y="575" as="targetPoint" />
          </mxGeometry>
        </mxCell>
        <mxCell id="C9Q3XTzdTyIVGIK0IBnI-28" value="" style="ellipse;html=1;fontSize=11;align=center;fillColor=none;points=[];aspect=fixed;resizable=0;verticalAlign=bottom;labelPosition=center;verticalLabelPosition=top;flipH=1;rotation=90;" parent="1" vertex="1">
          <mxGeometry x="271" y="852" width="8" height="8" as="geometry" />
        </mxCell>
        <mxCell id="C9Q3XTzdTyIVGIK0IBnI-36" value="" style="html=1;rounded=0;rotation=90;" parent="1" vertex="1">
          <mxGeometry x="435" y="783" width="20" height="20" as="geometry" />
        </mxCell>
        <mxCell id="C9Q3XTzdTyIVGIK0IBnI-37" value="" style="endArrow=none;html=1;rounded=0;align=center;verticalAlign=top;endFill=0;labelBackgroundColor=none;endSize=2;exitX=0;exitY=0.5;exitDx=0;exitDy=0;entryX=0.02;entryY=0.496;entryDx=0;entryDy=0;entryPerimeter=0;" parent="1" source="C9Q3XTzdTyIVGIK0IBnI-36" target="C9Q3XTzdTyIVGIK0IBnI-38" edge="1">
          <mxGeometry relative="1" as="geometry">
            <mxPoint x="335" y="475" as="sourcePoint" />
            <mxPoint x="381" y="475" as="targetPoint" />
          </mxGeometry>
        </mxCell>
        <mxCell id="C9Q3XTzdTyIVGIK0IBnI-38" value="" style="ellipse;html=1;fontSize=11;align=center;fillColor=none;points=[];aspect=fixed;resizable=0;verticalAlign=bottom;labelPosition=center;verticalLabelPosition=top;flipH=1;rotation=90;" parent="1" vertex="1">
          <mxGeometry x="387" y="775" width="8" height="8" as="geometry" />
        </mxCell>
        <mxCell id="C9Q3XTzdTyIVGIK0IBnI-45" value="" style="html=1;rounded=0;rotation=90;" parent="1" vertex="1">
          <mxGeometry x="415" y="675" width="20" height="20" as="geometry" />
        </mxCell>
        <mxCell id="C9Q3XTzdTyIVGIK0IBnI-46" value="" style="endArrow=none;html=1;rounded=0;align=center;verticalAlign=top;endFill=0;labelBackgroundColor=none;endSize=2;exitX=0.5;exitY=1;exitDx=0;exitDy=0;entryX=0.829;entryY=0.543;entryDx=0;entryDy=0;entryPerimeter=0;dashed=1;" parent="1" source="C9Q3XTzdTyIVGIK0IBnI-45" target="C9Q3XTzdTyIVGIK0IBnI-47" edge="1">
          <mxGeometry relative="1" as="geometry">
            <mxPoint x="395" y="505" as="sourcePoint" />
            <mxPoint x="441" y="505" as="targetPoint" />
            <Array as="points">
              <mxPoint x="391" y="685" />
            </Array>
          </mxGeometry>
        </mxCell>
        <mxCell id="C9Q3XTzdTyIVGIK0IBnI-47" value="" style="shape=requiredInterface;html=1;fontSize=11;align=center;fillColor=none;points=[];aspect=fixed;resizable=0;verticalAlign=bottom;labelPosition=center;verticalLabelPosition=top;flipH=1;direction=east;rotation=90;" parent="1" vertex="1">
          <mxGeometry x="389" y="767" width="5" height="10" as="geometry" />
        </mxCell>
        <mxCell id="C9Q3XTzdTyIVGIK0IBnI-48" value="connect" style="text;html=1;align=center;verticalAlign=middle;resizable=0;points=[];autosize=1;strokeColor=none;fillColor=none;rotation=90;" parent="1" vertex="1">
          <mxGeometry x="345" y="769" width="60" height="20" as="geometry" />
        </mxCell>
        <mxCell id="C9Q3XTzdTyIVGIK0IBnI-16" value="" style="endArrow=none;html=1;rounded=0;align=center;verticalAlign=top;endFill=0;labelBackgroundColor=none;endSize=2;entryX=0.556;entryY=-0.011;entryDx=0;entryDy=0;entryPerimeter=0;dashed=1;exitX=1;exitY=0.5;exitDx=0;exitDy=0;" parent="1" source="C9Q3XTzdTyIVGIK0IBnI-11" target="C9Q3XTzdTyIVGIK0IBnI-24" edge="1">
          <mxGeometry relative="1" as="geometry">
            <mxPoint x="275" y="655" as="sourcePoint" />
            <mxPoint x="715" y="60" as="targetPoint" />
          </mxGeometry>
        </mxCell>
        <mxCell id="C9Q3XTzdTyIVGIK0IBnI-24" value="" style="shape=requiredInterface;html=1;fontSize=11;align=center;fillColor=none;points=[];aspect=fixed;resizable=0;verticalAlign=bottom;labelPosition=center;verticalLabelPosition=top;flipH=1;direction=south;rotation=90;" parent="1" vertex="1">
          <mxGeometry x="264" y="853" width="10" height="5" as="geometry" />
        </mxCell>
        <mxCell id="C9Q3XTzdTyIVGIK0IBnI-50" value="connect" style="text;html=1;align=center;verticalAlign=middle;resizable=0;points=[];autosize=1;strokeColor=none;fillColor=none;rotation=90;" parent="1" vertex="1">
          <mxGeometry x="239" y="885" width="60" height="20" as="geometry" />
        </mxCell>
        <mxCell id="KGvkGtp63Ctycs8mEQUX-1" value="«Component»&lt;br&gt;&lt;b&gt;Google OAuth&lt;/b&gt;" style="html=1;dropTarget=0;rotation=90;" parent="1" vertex="1">
          <mxGeometry x="540" y="920" width="180" height="90" as="geometry" />
        </mxCell>
        <mxCell id="KGvkGtp63Ctycs8mEQUX-2" value="" style="shape=module;jettyWidth=8;jettyHeight=4;rotation=90;" parent="KGvkGtp63Ctycs8mEQUX-1" vertex="1">
          <mxGeometry x="1" width="20" height="20" relative="1" as="geometry">
            <mxPoint x="-27" y="7" as="offset" />
          </mxGeometry>
        </mxCell>
        <mxCell id="EURwnSzUpGYA48WqyLTf-12" value="" style="html=1;rounded=0;rotation=90;" parent="1" vertex="1">
          <mxGeometry x="615" y="860" width="30" height="30" as="geometry" />
        </mxCell>
        <mxCell id="EURwnSzUpGYA48WqyLTf-13" value="" style="endArrow=none;html=1;rounded=0;align=center;verticalAlign=top;endFill=0;labelBackgroundColor=none;endSize=2;" parent="1" source="EURwnSzUpGYA48WqyLTf-12" target="EURwnSzUpGYA48WqyLTf-14" edge="1">
          <mxGeometry relative="1" as="geometry" />
        </mxCell>
        <mxCell id="EURwnSzUpGYA48WqyLTf-9" value="" style="html=1;rounded=0;rotation=90;" parent="1" vertex="1">
          <mxGeometry x="615" y="710" width="30" height="30" as="geometry" />
        </mxCell>
        <mxCell id="EURwnSzUpGYA48WqyLTf-10" value="" style="endArrow=none;html=1;rounded=0;align=center;verticalAlign=top;endFill=0;labelBackgroundColor=none;endSize=2;" parent="1" source="EURwnSzUpGYA48WqyLTf-9" target="EURwnSzUpGYA48WqyLTf-11" edge="1">
          <mxGeometry relative="1" as="geometry" />
        </mxCell>
        <mxCell id="EURwnSzUpGYA48WqyLTf-11" value="" style="shape=requiredInterface;html=1;fontSize=11;align=center;fillColor=none;points=[];aspect=fixed;resizable=0;verticalAlign=bottom;labelPosition=center;verticalLabelPosition=top;flipH=1;direction=east;rotation=90;" parent="1" vertex="1">
          <mxGeometry x="625" y="775" width="5" height="10" as="geometry" />
        </mxCell>
        <mxCell id="KGvkGtp63Ctycs8mEQUX-5" value="«Component»&#xa;Cursos" style="text;align=center;fontStyle=1;verticalAlign=middle;spacingLeft=3;spacingRight=3;strokeColor=none;rotatable=0;points=[[0,0.5],[1,0.5]];portConstraint=eastwest;rotation=90;" parent="1" vertex="1">
          <mxGeometry x="508" y="632" width="80" height="26" as="geometry" />
        </mxCell>
        <mxCell id="KGvkGtp63Ctycs8mEQUX-8" value="«Component»&lt;br&gt;&lt;b&gt;Unidades&lt;/b&gt;" style="html=1;dropTarget=0;rotation=90;" parent="1" vertex="1">
          <mxGeometry x="422" y="613" width="130" height="64" as="geometry" />
        </mxCell>
        <mxCell id="KGvkGtp63Ctycs8mEQUX-9" value="" style="shape=module;jettyWidth=8;jettyHeight=4;rotation=90;" parent="KGvkGtp63Ctycs8mEQUX-8" vertex="1">
          <mxGeometry x="1" width="20" height="20" relative="1" as="geometry">
            <mxPoint x="-27" y="7" as="offset" />
          </mxGeometry>
        </mxCell>
        <mxCell id="KGvkGtp63Ctycs8mEQUX-11" value="" style="html=1;rounded=0;rotation=90;" parent="1" vertex="1">
          <mxGeometry x="455" y="215" width="30" height="30" as="geometry" />
        </mxCell>
        <mxCell id="KGvkGtp63Ctycs8mEQUX-12" value="" style="html=1;rounded=0;rotation=90;" parent="1" vertex="1">
          <mxGeometry x="533" y="215" width="30" height="30" as="geometry" />
        </mxCell>
        <mxCell id="KGvkGtp63Ctycs8mEQUX-14" value="" style="ellipse;html=1;fontSize=11;align=center;fillColor=none;points=[];aspect=fixed;resizable=0;verticalAlign=bottom;labelPosition=center;verticalLabelPosition=top;flipH=1;rotation=90;" parent="1" vertex="1">
          <mxGeometry x="508" y="226" width="8" height="8" as="geometry" />
        </mxCell>
        <mxCell id="KGvkGtp63Ctycs8mEQUX-15" value="" style="endArrow=none;html=1;rounded=0;align=center;verticalAlign=top;endFill=0;labelBackgroundColor=none;endSize=2;exitX=0.5;exitY=0;exitDx=0;exitDy=0;" parent="1" source="KGvkGtp63Ctycs8mEQUX-11" target="KGvkGtp63Ctycs8mEQUX-14" edge="1">
          <mxGeometry relative="1" as="geometry">
            <mxPoint x="485" y="230" as="sourcePoint" />
            <mxPoint x="525" y="230" as="targetPoint" />
            <Array as="points" />
          </mxGeometry>
        </mxCell>
        <mxCell id="KGvkGtp63Ctycs8mEQUX-16" value="" style="shape=requiredInterface;html=1;fontSize=11;align=center;fillColor=none;points=[];aspect=fixed;resizable=0;verticalAlign=bottom;labelPosition=center;verticalLabelPosition=top;flipH=1;direction=north;rotation=90;" parent="1" vertex="1">
          <mxGeometry x="512" y="228" width="10" height="5" as="geometry" />
        </mxCell>
        <mxCell id="KGvkGtp63Ctycs8mEQUX-18" value="" style="endArrow=none;html=1;rounded=0;align=center;verticalAlign=top;endFill=0;labelBackgroundColor=none;endSize=2;exitX=0.5;exitY=0;exitDx=0;exitDy=0;entryX=0.5;entryY=1;entryDx=0;entryDy=0;" parent="1" target="KGvkGtp63Ctycs8mEQUX-12" edge="1">
          <mxGeometry relative="1" as="geometry">
            <mxPoint x="533" y="229" as="sourcePoint" />
            <mxPoint x="567" y="229" as="targetPoint" />
          </mxGeometry>
        </mxCell>
        <mxCell id="KGvkGtp63Ctycs8mEQUX-19" value="Use" style="text;html=1;strokeColor=none;fillColor=none;align=center;verticalAlign=middle;whiteSpace=wrap;rounded=0;rotation=90;" parent="1" vertex="1">
          <mxGeometry x="482" y="240" width="60" height="30" as="geometry" />
        </mxCell>
        <mxCell id="KGvkGtp63Ctycs8mEQUX-21" value="" style="endArrow=none;html=1;rounded=0;exitX=1.021;exitY=0.508;exitDx=0;exitDy=0;exitPerimeter=0;entryX=0.471;entryY=1.017;entryDx=0;entryDy=0;entryPerimeter=0;" parent="1" source="KGvkGtp63Ctycs8mEQUX-16" target="KGvkGtp63Ctycs8mEQUX-12" edge="1">
          <mxGeometry width="50" height="50" relative="1" as="geometry">
            <mxPoint x="495" y="225" as="sourcePoint" />
            <mxPoint x="545" y="275" as="targetPoint" />
          </mxGeometry>
        </mxCell>
        <mxCell id="KGvkGtp63Ctycs8mEQUX-22" value="«Component»&#xa;Sitio Web" style="text;align=center;fontStyle=1;verticalAlign=middle;spacingLeft=3;spacingRight=3;strokeColor=none;rotatable=0;points=[[0,0.5],[1,0.5]];portConstraint=eastwest;rotation=90;" parent="1" vertex="1">
          <mxGeometry x="618" y="222" width="80" height="26" as="geometry" />
        </mxCell>
        <mxCell id="KGvkGtp63Ctycs8mEQUX-27" value="«Component»&lt;br&gt;&lt;b&gt;Administrador&lt;/b&gt;" style="html=1;dropTarget=0;rotation=90;" parent="1" vertex="1">
          <mxGeometry x="185" y="170" width="180" height="120" as="geometry" />
        </mxCell>
        <mxCell id="KGvkGtp63Ctycs8mEQUX-28" value="" style="shape=module;jettyWidth=8;jettyHeight=4;rotation=90;" parent="KGvkGtp63Ctycs8mEQUX-27" vertex="1">
          <mxGeometry x="1" width="20" height="20" relative="1" as="geometry">
            <mxPoint x="-27" y="7" as="offset" />
          </mxGeometry>
        </mxCell>
        <mxCell id="KGvkGtp63Ctycs8mEQUX-29" value="" style="html=1;rounded=0;rotation=90;" parent="1" vertex="1">
          <mxGeometry x="265" y="315" width="20" height="20" as="geometry" />
        </mxCell>
        <mxCell id="KGvkGtp63Ctycs8mEQUX-32" value="IMG" style="shape=folder;fontStyle=1;tabWidth=80;tabHeight=30;tabPosition=left;html=1;boundedLbl=1;rotation=90;" parent="1" vertex="1">
          <mxGeometry x="595" y="140" width="30" height="60" as="geometry" />
        </mxCell>
        <mxCell id="KGvkGtp63Ctycs8mEQUX-33" value="CSS" style="shape=folder;fontStyle=1;tabWidth=80;tabHeight=30;tabPosition=left;html=1;boundedLbl=1;rotation=90;" parent="1" vertex="1">
          <mxGeometry x="595" y="205" width="30" height="60" as="geometry" />
        </mxCell>
        <mxCell id="KGvkGtp63Ctycs8mEQUX-34" value="JS" style="shape=folder;fontStyle=1;tabWidth=80;tabHeight=30;tabPosition=left;html=1;boundedLbl=1;rotation=90;" parent="1" vertex="1">
          <mxGeometry x="595" y="270" width="30" height="60" as="geometry" />
        </mxCell>
        <mxCell id="fkSn7j7sHyEuHpr40nKb-1" value="" style="endArrow=none;html=1;rounded=0;" edge="1" parent="1">
          <mxGeometry width="50" height="50" relative="1" as="geometry">
            <mxPoint x="495" y="445" as="sourcePoint" />
            <mxPoint x="623" y="445" as="targetPoint" />
            <Array as="points">
              <mxPoint x="623" y="445" />
            </Array>
          </mxGeometry>
        </mxCell>
        <mxCell id="fkSn7j7sHyEuHpr40nKb-2" value="" style="endArrow=none;html=1;rounded=0;exitX=1;exitY=0.75;exitDx=0;exitDy=0;" edge="1" parent="1" source="KGvkGtp63Ctycs8mEQUX-29">
          <mxGeometry width="50" height="50" relative="1" as="geometry">
            <mxPoint x="295" y="395" as="sourcePoint" />
            <mxPoint x="495" y="445" as="targetPoint" />
            <Array as="points">
              <mxPoint x="270" y="445" />
              <mxPoint x="495" y="445" />
            </Array>
          </mxGeometry>
        </mxCell>
        <mxCell id="fkSn7j7sHyEuHpr40nKb-5" value="" style="endArrow=none;html=1;rounded=0;entryX=-0.002;entryY=0.701;entryDx=0;entryDy=0;entryPerimeter=0;exitX=1.034;exitY=0.455;exitDx=0;exitDy=0;exitPerimeter=0;" edge="1" parent="1" source="fkSn7j7sHyEuHpr40nKb-6" target="EURwnSzUpGYA48WqyLTf-25">
          <mxGeometry width="50" height="50" relative="1" as="geometry">
            <mxPoint x="272" y="465" as="sourcePoint" />
            <mxPoint x="321" y="519" as="targetPoint" />
          </mxGeometry>
        </mxCell>
        <mxCell id="fkSn7j7sHyEuHpr40nKb-6" value="" style="shape=requiredInterface;html=1;fontSize=11;align=center;fillColor=none;points=[];aspect=fixed;resizable=0;verticalAlign=bottom;labelPosition=center;verticalLabelPosition=top;flipH=1;direction=west;rotation=90;" vertex="1" parent="1">
          <mxGeometry x="269" y="462" width="5" height="10" as="geometry" />
        </mxCell>
        <mxCell id="fkSn7j7sHyEuHpr40nKb-7" value="" style="shape=requiredInterface;html=1;fontSize=11;align=center;fillColor=none;points=[];aspect=fixed;resizable=0;verticalAlign=bottom;labelPosition=center;verticalLabelPosition=top;flipH=1;direction=west;rotation=90;" vertex="1" parent="1">
          <mxGeometry x="493" y="483" width="5" height="10" as="geometry" />
        </mxCell>
        <mxCell id="fkSn7j7sHyEuHpr40nKb-8" value="" style="endArrow=none;html=1;rounded=0;entryX=0;entryY=0.5;entryDx=0;entryDy=0;exitX=1.061;exitY=0.475;exitDx=0;exitDy=0;exitPerimeter=0;" edge="1" parent="1" source="fkSn7j7sHyEuHpr40nKb-7" target="EURwnSzUpGYA48WqyLTf-5">
          <mxGeometry width="50" height="50" relative="1" as="geometry">
            <mxPoint x="425" y="465" as="sourcePoint" />
            <mxPoint x="475" y="515" as="targetPoint" />
          </mxGeometry>
        </mxCell>
        <mxCell id="fkSn7j7sHyEuHpr40nKb-10" value="" style="shape=requiredInterface;html=1;fontSize=11;align=center;fillColor=none;points=[];aspect=fixed;resizable=0;verticalAlign=bottom;labelPosition=center;verticalLabelPosition=top;flipH=1;direction=west;rotation=90;" vertex="1" parent="1">
          <mxGeometry x="624" y="466" width="5" height="10" as="geometry" />
        </mxCell>
        <mxCell id="fkSn7j7sHyEuHpr40nKb-11" value="" style="endArrow=none;html=1;rounded=0;entryX=1.067;entryY=0.517;entryDx=0;entryDy=0;entryPerimeter=0;exitX=0.004;exitY=0.552;exitDx=0;exitDy=0;exitPerimeter=0;" edge="1" parent="1" source="EURwnSzUpGYA48WqyLTf-3" target="fkSn7j7sHyEuHpr40nKb-10">
          <mxGeometry width="50" height="50" relative="1" as="geometry">
            <mxPoint x="585" y="485" as="sourcePoint" />
            <mxPoint x="635" y="535" as="targetPoint" />
          </mxGeometry>
        </mxCell>
        <mxCell id="fkSn7j7sHyEuHpr40nKb-13" value="" style="ellipse;html=1;fontSize=11;align=center;fillColor=none;points=[];aspect=fixed;resizable=0;verticalAlign=bottom;labelPosition=center;verticalLabelPosition=top;flipH=1;rotation=90;" vertex="1" parent="1">
          <mxGeometry x="268" y="456" width="8" height="8" as="geometry" />
        </mxCell>
        <mxCell id="fkSn7j7sHyEuHpr40nKb-15" value="" style="endArrow=none;html=1;rounded=0;exitX=0.982;exitY=0.366;exitDx=0;exitDy=0;exitPerimeter=0;" edge="1" parent="1" source="fkSn7j7sHyEuHpr40nKb-13">
          <mxGeometry width="50" height="50" relative="1" as="geometry">
            <mxPoint x="235" y="435" as="sourcePoint" />
            <mxPoint x="285" y="445" as="targetPoint" />
            <Array as="points">
              <mxPoint x="275" y="445" />
            </Array>
          </mxGeometry>
        </mxCell>
        <mxCell id="fkSn7j7sHyEuHpr40nKb-16" value="" style="endArrow=none;html=1;rounded=0;entryX=0.991;entryY=0.458;entryDx=0;entryDy=0;entryPerimeter=0;" edge="1" parent="1" target="fkSn7j7sHyEuHpr40nKb-17">
          <mxGeometry width="50" height="50" relative="1" as="geometry">
            <mxPoint x="495" y="445" as="sourcePoint" />
            <mxPoint x="535" y="435" as="targetPoint" />
          </mxGeometry>
        </mxCell>
        <mxCell id="fkSn7j7sHyEuHpr40nKb-17" value="" style="ellipse;html=1;fontSize=11;align=center;fillColor=none;points=[];aspect=fixed;resizable=0;verticalAlign=bottom;labelPosition=center;verticalLabelPosition=top;flipH=1;rotation=90;" vertex="1" parent="1">
          <mxGeometry x="491" y="477" width="8" height="8" as="geometry" />
        </mxCell>
        <mxCell id="fkSn7j7sHyEuHpr40nKb-18" value="" style="ellipse;html=1;fontSize=11;align=center;fillColor=none;points=[];aspect=fixed;resizable=0;verticalAlign=bottom;labelPosition=center;verticalLabelPosition=top;flipH=1;rotation=90;" vertex="1" parent="1">
          <mxGeometry x="623" y="463" width="8" height="8" as="geometry" />
        </mxCell>
        <mxCell id="fkSn7j7sHyEuHpr40nKb-19" value="" style="endArrow=none;html=1;rounded=0;entryX=0.995;entryY=0.481;entryDx=0;entryDy=0;entryPerimeter=0;" edge="1" parent="1" target="fkSn7j7sHyEuHpr40nKb-18">
          <mxGeometry width="50" height="50" relative="1" as="geometry">
            <mxPoint x="615" y="445" as="sourcePoint" />
            <mxPoint x="645" y="425" as="targetPoint" />
            <Array as="points">
              <mxPoint x="625" y="445" />
            </Array>
          </mxGeometry>
        </mxCell>
        <mxCell id="fkSn7j7sHyEuHpr40nKb-21" value="Crud" style="text;html=1;align=center;verticalAlign=middle;resizable=0;points=[];autosize=1;strokeColor=none;fillColor=none;rotation=90;" vertex="1" parent="1">
          <mxGeometry x="497" y="471" width="40" height="20" as="geometry" />
        </mxCell>
        <mxCell id="fkSn7j7sHyEuHpr40nKb-22" value="Crud" style="text;html=1;align=center;verticalAlign=middle;resizable=0;points=[];autosize=1;strokeColor=none;fillColor=none;rotation=90;" vertex="1" parent="1">
          <mxGeometry x="269" y="457" width="40" height="20" as="geometry" />
        </mxCell>
        <mxCell id="fkSn7j7sHyEuHpr40nKb-23" value="Crud" style="text;html=1;align=center;verticalAlign=middle;resizable=0;points=[];autosize=1;strokeColor=none;fillColor=none;rotation=90;" vertex="1" parent="1">
          <mxGeometry x="621" y="457" width="40" height="20" as="geometry" />
        </mxCell>
        <mxCell id="fkSn7j7sHyEuHpr40nKb-27" value="" style="whiteSpace=wrap;html=1;" vertex="1" parent="1">
          <mxGeometry x="350" y="790" width="120" height="60" as="geometry" />
        </mxCell>
      </root>
    </mxGraphModel>
  </diagram>
</mxfile>
